<svg width="48" height="48" viewBox="0 0 48 48" fill="none"
    xmlns="http://www.w3.org/2000/svg">
    <rect width="48" height="48" fill="#201547"/>
    <g clip-path="url(#clip0)">
        <path d="M38.0967 22.317C37.3835 22.0792 36.8843 21.8415 36.5277 21.58C36.1712 21.3185 36.0048 20.9382 36.0048 20.4152V15.7797C36.0048 14.6387 35.6244 13.7353 34.8875 13.046C34.1506 12.3566 33.1521 12 31.916 12H28.3502H19.6498H16.084C14.8479 12 13.8732 12.3566 13.1125 13.046C12.3518 13.7353 11.9952 14.6387 11.9952 15.7797V20.439C11.9952 20.962 11.8288 21.3661 11.4723 21.6038C11.1395 21.8653 10.6165 22.103 9.90333 22.3407L9 22.626V25.5024L9.90333 25.7876C10.6165 26.0254 11.1157 26.2631 11.4723 26.5246C11.8051 26.7861 11.9952 27.1664 11.9952 27.6894V32.3487C11.9952 33.4897 12.3756 34.393 13.1125 35.0586C13.8732 35.748 14.8479 36.0808 16.084 36.0808H19.6498V36.0333H28.3502V36.0808H31.916C33.1521 36.0808 34.1268 35.748 34.8875 35.0586C35.6482 34.3693 36.0048 33.4659 36.0048 32.3487V27.6656C36.0048 27.1426 36.1712 26.7385 36.5277 26.5008C36.8605 26.2393 37.3835 26.0016 38.0967 25.7639L39 25.4786V22.626L38.0967 22.317Z" fill="#E40046"/>
        <path d="M25.4519 17.9668L17.9551 25.4636L19.2998 26.8084L26.7967 19.3115L25.4519 17.9668Z" fill="white"/>
        <path d="M19.3163 17.9751L17.9715 19.3199L30.2589 31.6073L31.6037 30.2625L19.3163 17.9751Z" fill="white"/>
        <path d="M23.3344 17.0872H21.4327V27.6894H23.3344V17.0872Z" fill="white"/>
        <path d="M27.6846 21.4374H17.0824V23.3392H27.6846V21.4374Z" fill="white"/>
    </g>
    <defs>
        <clipPath id="clip0">
            <rect width="30" height="24.0808" fill="white" transform="translate(9 12)"/>
        </clipPath>
    </defs>
</svg>
